<svg preserveAspectRatio="none" overflow="visible" style="display: block;" width="24" height="24" viewBox="0 0 24 24" fill="none" xmlns="http://www.w3.org/2000/svg">
<g id="ICONED BUTTON COMPONENTS">
<path id="Vector" fill-rule="evenodd" clip-rule="evenodd" d="M8 4H16V2H18V4H19C19.5304 4 20.0391 4.21071 20.4142 4.58579C20.7893 4.96086 21 5.46957 21 6V20C21 20.5304 20.7893 21.0391 20.4142 21.4142C20.0391 21.7893 19.5304 22 19 22H5C4.46957 22 3.96086 21.7893 3.58579 21.4142C3.21071 21.0391 3 20.5304 3 20V6C3 5.46957 3.21071 4.96086 3.58579 4.58579C3.96086 4.21071 4.46957 4 5 4H6V2H8V4ZM5 8V20H19V8H5ZM7 11H9V13H7V11ZM11 11H13V13H11V11ZM15 11H17V13H15V11ZM15 15H17V17H15V15ZM11 15H13V17H11V15ZM7 15H9V17H7V15Z" fill="#0A3D62"/>
<path id="Vector_2" d="M9 10H7V12H9V10ZM13 10H11V12H13V10ZM17 10H15V12H17V10ZM19 3H18V1H16V3H8V1H6V3H5C4.46957 3 3.96086 3.21071 3.58579 3.58579C3.21071 3.96086 3 4.46957 3 5V19C3 19.5304 3.21071 20.0391 3.58579 20.4142C3.96086 20.7893 4.46957 21 5 21H19C19.5304 21 20.0391 20.7893 20.4142 20.4142C20.7893 20.0391 21 19.5304 21 19V5C21 4.46957 20.7893 3.96086 20.4142 3.58579C20.0391 3.21071 19.5304 3 19 3ZM19 19H5V8H19V19Z" fill="#0A3D62"/>
</g>
</svg>
